<mxfile host="app.diagrams.net" modified="2024-03-28T08:24:10.424Z" agent="Mozilla/5.0 (Windows NT 10.0; Win64; x64) AppleWebKit/537.36 (KHTML, like Gecko) Chrome/123.0.0.0 Safari/537.36" version="24.2.0" etag="w5wG2WQ7SltMbqgwkmRN" type="github">
  <diagram name="페이지-1" id="QtwmNXFL1ca5QjoBoCKy">
    <mxGraphModel>
      <root>
        <mxCell id="0" />
        <mxCell id="1" parent="0" />
      </root>
    </mxGraphModel>
  </diagram>
</mxfile>
